<svg width="31" height="37" viewBox="0 0 31 37" fill="none" xmlns="http://www.w3.org/2000/svg">
<path d="M3.62334 6.74881C3.59076 6.89617 3.70543 7.07681 3.76375 7.21253C3.93335 7.60713 4.15863 7.98814 4.40629 8.34286C5.41704 9.79045 6.77126 11.0244 8.22944 12.0634C8.83556 12.4954 9.46281 12.8956 10.1207 13.2531C10.2815 13.3405 10.4466 13.4206 10.6088 13.5058C10.6972 13.5523 10.8092 13.622 10.9138 13.6225C11.091 13.6234 11.3039 13.4246 11.4629 13.3537C11.8049 13.201 12.2122 13.1029 12.5915 13.1276C12.9484 13.1508 13.2795 13.2406 13.5981 13.393C13.7415 13.4615 13.9503 13.6493 14.1167 13.6148C14.362 13.564 14.6321 13.383 14.8488 13.2656C15.3639 12.9863 15.8611 12.6822 16.3435 12.3547C17.8574 11.3267 19.3202 10.0969 20.3804 8.63268C20.7783 8.08326 21.216 7.4663 21.3767 6.80677C21.2368 6.91429 21.136 7.06101 21.0102 7.18355C20.654 7.53044 20.2395 7.86603 19.7599 8.04712C19.6085 8.10433 19.4379 8.17432 19.2719 8.17252C19.0351 8.16995 18.7949 7.85047 18.6313 7.71016C18.1947 7.33565 17.7043 7.00351 17.1976 6.72014C15.8076 5.94279 14.2246 5.57037 12.622 5.5037C12.1482 5.48398 11.6567 5.54651 11.1883 5.61064C9.86891 5.79128 8.6241 6.21591 7.49735 6.89526C7.12535 7.11956 6.75821 7.37278 6.42971 7.6522C6.25327 7.80227 6.03898 8.0792 5.81963 8.16322C5.62977 8.23597 5.31842 8.08955 5.14854 8.01509C4.56927 7.76112 3.94092 7.27841 3.62334 6.74881ZM4.44695 10.2847C4.30419 10.5995 4.11424 10.8952 3.97191 11.2121C3.67569 11.8718 3.45642 12.5625 3.33157 13.2699C3.18286 14.1124 3.22679 14.9689 3.22679 15.8204C3.22679 17.2002 3.23945 18.5919 3.09959 19.9649C2.93292 21.6014 2.54356 23.2371 1.93266 24.776C1.6605 25.4615 1.29522 26.1021 1 26.7758C1.18388 26.698 1.33176 26.5528 1.48806 26.4338C1.76333 26.2243 2.03884 26.0151 2.31167 25.8027C2.70542 25.4961 3.10444 25.1949 3.50133 24.892C3.7047 24.7368 3.94708 24.5923 4.11141 24.3992C4.49423 24.8386 4.78222 25.3899 5.09373 25.8774C5.51389 26.5349 5.97608 27.1756 6.3687 27.8482C6.64708 27.6619 6.88541 27.4061 7.1313 27.1827C7.43286 26.9087 7.75081 26.65 8.04642 26.3701C8.19452 26.2298 8.35433 26.1028 8.50398 25.9643C8.55742 25.9148 8.63115 25.821 8.71433 25.821C8.83242 25.821 8.9293 26.0582 8.98231 26.1382C9.21127 26.4836 9.43295 26.8335 9.65736 27.1816C10.3313 28.2268 11.0073 29.2713 11.6893 30.3117C11.8725 30.5911 12.0505 30.8737 12.2352 31.1522C12.3207 31.2812 12.3844 31.428 12.5305 31.5C13.4181 30.2255 14.2337 28.8938 15.0685 27.5873C15.3041 27.2186 15.5426 26.851 15.7847 26.486C15.9352 26.2591 16.136 26.0179 16.2215 25.7614C16.4272 25.8628 16.5701 26.0451 16.7401 26.1912C17.162 26.5541 17.5794 26.9249 17.9907 27.2986C18.1883 27.4782 18.3798 27.7084 18.6313 27.8192C19.1317 27.1138 19.5759 26.3686 20.0474 25.6455C20.3049 25.2507 20.6594 24.8356 20.8276 24.3992C21.1604 24.6084 21.4647 24.8713 21.7732 25.1115C22.2878 25.5122 22.8094 25.9056 23.3289 26.3005C23.5508 26.4692 23.7629 26.6558 24 26.8048C23.9172 26.5318 23.7413 26.2775 23.6113 26.0223C23.4339 25.6739 23.2732 25.3117 23.1283 24.9499C22.587 23.5978 22.194 22.1826 21.9953 20.7474C21.7897 19.262 21.7732 17.7809 21.7732 16.2841C21.7732 15.299 21.8281 14.3038 21.6688 13.3279C21.5554 12.6335 21.3448 11.9468 21.0587 11.2991C20.9061 10.9536 20.7043 10.6299 20.5531 10.2847H20.492C20.2331 10.7262 19.8493 11.121 19.503 11.502C19.3699 11.6483 19.0966 11.8329 19.0406 12.0237C18.998 12.1688 19.1962 12.4122 19.2535 12.5453C19.4143 12.9196 19.5404 13.3257 19.5459 13.7336C19.5598 14.7856 18.8362 15.7268 17.8687 16.1864C17.3005 16.4563 16.6962 16.5449 16.069 16.5449C16.0715 16.8358 16.1459 17.1237 16.1593 17.4144C16.1651 17.5415 16.1212 17.7292 16.1918 17.843C16.242 17.924 16.3534 17.9656 16.435 18.0116C16.6169 18.1141 16.8018 18.2115 16.9841 18.3132C17.4295 18.5618 17.8781 18.8055 18.3263 19.0497C18.5871 19.1917 18.8431 19.3591 19.1194 19.4722V19.5302C18.6965 19.6484 18.2824 19.9493 17.8992 20.1555C17.3321 20.4606 16.6649 20.7205 16.1922 21.1558C15.5812 21.7184 15.1598 22.4847 14.8089 23.211C14.2826 24.3001 13.8797 25.4297 13.5058 26.5729C13.27 27.2944 13.0504 28.0204 12.8312 28.7466C12.731 29.0788 12.5791 29.4185 12.5305 29.761C12.4297 29.6601 12.4011 29.5163 12.3604 29.3843C12.292 29.1621 12.2266 28.9386 12.1541 28.7177C11.8601 27.823 11.6023 26.9174 11.3096 26.0223C10.9642 24.9663 10.5575 23.9108 10.0367 22.9211C9.74836 22.3732 9.43176 21.8081 8.9893 21.3561C8.46524 20.8206 7.76728 20.5067 7.1008 20.1589C6.68744 19.9432 6.28311 19.6784 5.85013 19.5012C6.55121 19.0935 7.27445 18.7172 7.98541 18.3252L8.56499 18.0064C8.6471 17.961 8.75683 17.9201 8.80816 17.8396C8.88238 17.7234 8.83659 17.5164 8.83998 17.3854C8.84724 17.1041 8.91834 16.8258 8.93103 16.5449C7.47179 16.5449 5.96324 15.8646 5.54973 14.4292C5.47554 14.1717 5.44715 13.9131 5.45404 13.6467C5.46337 13.2847 5.57456 12.9055 5.72424 12.5743C5.78955 12.4298 5.9845 12.1865 5.94726 12.0237C5.90553 11.8414 5.61778 11.6379 5.48924 11.502C5.26174 11.2614 5.04641 11.0055 4.83996 10.7484C4.71535 10.5932 4.60554 10.4091 4.44695 10.2847ZM7.1313 13.0091C7.01697 13.4071 6.87089 13.7561 7.02597 14.1684C7.45171 15.3 9.19984 15.3147 10.1207 14.806C9.95237 14.667 9.73469 14.5932 9.54111 14.4912C9.18949 14.3059 8.84346 14.1107 8.50398 13.906C8.19116 13.7174 7.88981 13.5123 7.58886 13.3073C7.43863 13.205 7.30234 13.0778 7.1313 13.0091ZM17.8077 13.0091C16.9246 13.7351 15.8786 14.2228 14.8793 14.777C15.0573 14.9479 15.3681 15.0254 15.6114 15.0724C16.2981 15.2053 17.0845 15.1115 17.6235 14.6524C18.0625 14.2784 18.233 13.4582 17.8077 13.0091ZM8.90053 19.4432V19.5012C10.4295 20.2745 11.2856 21.7812 11.8578 23.2689C12.0008 23.6409 12.1315 24.0211 12.2552 24.3992C12.3261 24.6161 12.3721 24.8727 12.5 25.0658C12.6311 24.8619 12.6861 24.5711 12.757 24.3413C12.8589 24.0105 12.979 23.6806 13.1007 23.3559C13.5228 22.229 14.0726 21.1661 14.9708 20.3127C15.2992 20.0008 15.6761 19.6915 16.0995 19.5012V19.4432C15.7718 19.3091 15.4609 19.1115 15.1538 18.939C14.9877 18.8457 14.8088 18.7757 14.7173 18.6027C14.651 18.4775 14.6658 18.3328 14.6658 18.197C14.6658 17.9578 14.6845 17.7106 14.6606 17.4724C14.5661 16.5288 14.3415 15.5807 13.5371 14.9438C13.1652 14.6493 12.7455 14.4868 12.256 14.5538C11.8918 14.6037 11.5663 14.8289 11.3104 15.0673C10.6477 15.6844 10.3987 16.5576 10.337 17.4144C10.319 17.6636 10.3342 17.9183 10.3342 18.168C10.3342 18.3025 10.3491 18.4486 10.2862 18.5737C10.1912 18.7629 9.99584 18.8508 9.81565 18.9509C9.51686 19.1167 9.21826 19.3131 8.90053 19.4432Z" fill="#58506D"/>
</svg>
