<svg width="32" height="32" viewBox="0 0 32 32" fill="none" xmlns="http://www.w3.org/2000/svg">
<path d="M29.3333 20L21.3333 12M29.3333 12L21.3333 20" stroke="#58506D" stroke-width="3" stroke-linecap="round"/>
<path d="M2.66667 19.9453V12.0533C2.66667 11.288 3.264 10.6667 4 10.6667H8.78133C8.95778 10.666 9.13227 10.6297 9.29428 10.5598C9.45629 10.4899 9.60247 10.3879 9.724 10.26L13.724 5.74266C14.564 4.868 16 5.488 16 6.724V25.276C16 26.5213 14.5467 27.136 13.712 26.244L9.72533 21.752C9.60346 21.6204 9.4558 21.5154 9.29156 21.4433C9.12732 21.3713 8.95001 21.3339 8.77067 21.3333H4C3.264 21.3333 2.66667 20.712 2.66667 19.9453Z" stroke="#58506D" stroke-width="3" stroke-linecap="round" stroke-linejoin="round"/>
</svg>
