<svg width="32" height="32" viewBox="0 0 32 32" fill="none" xmlns="http://www.w3.org/2000/svg">
<path d="M21.6667 11C23.444 13.3707 23.444 17.9627 21.6667 20.3334M25.6667 6.33335C30.984 11.4107 31.016 19.956 25.6667 25M3 19.612V11.72C3 10.9547 3.59733 10.3334 4.33333 10.3334H9.11467C9.29111 10.3327 9.4656 10.2964 9.62761 10.2265C9.78962 10.1566 9.9358 10.0546 10.0573 9.92668L14.0573 5.40935C14.8973 4.53468 16.3333 5.15468 16.3333 6.39068V24.9427C16.3333 26.188 14.88 26.8027 14.0453 25.9107L10.0587 21.4187C9.93679 21.2871 9.78913 21.1821 9.62489 21.11C9.46065 21.038 9.28334 21.0006 9.104 21H4.33333C3.59733 21 3 20.3787 3 19.612Z" stroke="#58506D" stroke-width="3" stroke-linecap="round" stroke-linejoin="round"/>
</svg>
