<svg width="36" height="37" viewBox="0 0 36 37" fill="none" xmlns="http://www.w3.org/2000/svg">
<path fill-rule="evenodd" clip-rule="evenodd" d="M29.8335 6.96657C30.2094 6.80837 30.6208 6.75381 31.025 6.80856C31.4291 6.86332 31.8112 7.02539 32.1314 7.27791C32.4516 7.53044 32.6983 7.86417 32.8458 8.24439C32.9933 8.62461 33.0362 9.03741 32.97 9.43982L29.5202 30.3651C29.1856 32.3835 26.9709 33.5411 25.1198 32.5356C23.5713 31.6945 21.2715 30.3985 19.2028 29.0463C18.1685 28.3695 15.0001 26.2019 15.3895 24.6596C15.7242 23.3408 21.0479 18.3852 24.09 15.4389C25.284 14.2814 24.7395 13.6136 23.3295 14.6784C19.828 17.322 14.2061 21.3421 12.3474 22.4738C10.7077 23.4716 9.85285 23.642 8.83069 23.4716C6.96587 23.1613 5.23642 22.6807 3.82488 22.0951C1.91746 21.3041 2.01025 18.6818 3.82336 17.9182L29.8335 6.96657Z" fill="#58506D"/>
</svg>
